<svg enable-background="new 0 0 64 64" viewBox="0 18 64 32" xmlns="http://www.w3.org/2000/svg"><g fill="#bdd3f4"><path d="m11 26v16h42v-16zm26 10h-3v3h-4v-3h-3v-4h3v-3h4v3h3z"/><path d="m11 42h42v4h-42z"/><path d="m11 22h42v4h-42z"/></g><path d="m30 39h4v-3h3v-4h-3v-3h-4v3h-3v4h3z" fill="#4a81d4"/><path d="m11 39h42v3h-42z" fill="#b0cbf4"/><path d="m11 26h42v3h-42z" fill="#b0cbf4"/><path d="m14 33h10v2h-10z"/><path d="m40 33h10v2h-10z"/><path d="m58.684 20.633c-1.937-.968-4.188-.812-5.974.367h-41.419c-1.788-1.179-4.039-1.334-5.974-.367-2.046 1.023-3.317 3.08-3.317 5.367v4c0 6.575 3.14 12.855 8.4 16.8l.01-.014c.167.126.365.214.59.214h42c.225 0 .423-.088.59-.214l.01.014c5.26-3.945 8.4-10.225 8.4-16.8v-4c0-2.287-1.271-4.344-3.316-5.367zm-46.684 6.367h40v14h-40zm40-4v2h-40v-2zm-48 7v-4c0-1.548.827-2.885 2.211-3.578 1.241-.62 2.623-.567 3.789.118v21.31c-3.787-3.566-6-8.603-6-13.85zm8 15v-2h40v2zm48-15c0 5.247-2.213 10.284-6 13.85v-21.31c1.165-.684 2.548-.737 3.789-.117 1.384.692 2.211 2.029 2.211 3.577z"/><path d="m37 31h-2v-2c0-.552-.448-1-1-1h-4c-.552 0-1 .448-1 1v2h-2c-.552 0-1 .448-1 1v4c0 .552.448 1 1 1h2v2c0 .552.448 1 1 1h4c.552 0 1-.448 1-1v-2h2c.552 0 1-.448 1-1v-4c0-.552-.448-1-1-1zm-1 4h-2c-.552 0-1 .448-1 1v2h-2v-2c0-.552-.448-1-1-1h-2v-2h2c.552 0 1-.448 1-1v-2h2v2c0 .552.448 1 1 1h2z"/></svg>