<svg xmlns:xlink="http://www.w3.org/1999/xlink" xmlns="http://www.w3.org/2000/svg" viewBox="-300 0 900 269" id="surgetimeline-figure" class="figure" figure-name="surgetimeline"><g><rect x="0" y="8" height="13" width="337.5" fill="gold" cursor="pointer"/><rect x="337.5" y="8" height="13" width="300" fill="#2e8b57" cursor="pointer"/><rect x="0" y="22" height="13" width="187.5" fill="red" cursor="pointer"/><rect x="187.5" y="22" height="13" width="75" fill="gold" cursor="pointer"/><rect x="262.5" y="22" height="13" width="375" fill="#2e8b57" cursor="pointer"/><rect x="0" y="36" height="13" width="262.5" fill="red" cursor="pointer"/><rect x="262.5" y="36" height="13" width="75" fill="gold" cursor="pointer"/><rect x="337.5" y="36" height="13" width="300" fill="#2e8b57" cursor="pointer"/><rect x="0" y="50" height="13" width="300" fill="red" cursor="pointer"/><rect x="300" y="50" height="13" width="37.5" fill="gold" cursor="pointer"/><rect x="337.5" y="50" height="13" width="300" fill="#2e8b57" cursor="pointer"/><rect x="0" y="64" height="13" width="262.5" fill="#2e8b57" cursor="pointer"/><rect x="262.5" y="64" height="13" width="375" fill="gold" cursor="pointer"/><rect x="0" y="78" height="13" width="637.5" fill="#2e8b57" cursor="pointer"/><rect x="0" y="92" height="13" width="187.5" fill="red" cursor="pointer"/><rect x="187.5" y="92" height="13" width="75" fill="gold" cursor="pointer"/><rect x="262.5" y="92" height="13" width="375" fill="#2e8b57" cursor="pointer"/><rect x="0" y="106" height="13" width="150" fill="gold" cursor="pointer"/><rect x="150" y="106" height="13" width="487.5" fill="#2e8b57" cursor="pointer"/><rect x="0" y="120" height="13" width="412.5" fill="red" cursor="pointer"/><rect x="412.5" y="120" height="13" width="75" fill="gold" cursor="pointer"/><rect x="487.5" y="120" height="13" width="150" fill="#2e8b57" cursor="pointer"/><rect x="0" y="134" height="13" width="262.5" fill="#2e8b57" cursor="pointer"/><rect x="262.5" y="134" height="13" width="375" fill="gold" cursor="pointer"/><rect x="0" y="148" height="13" width="300" fill="#2e8b57" cursor="pointer"/><rect x="300" y="148" height="13" width="337.5" fill="gold" cursor="pointer"/><rect x="0" y="162" height="13" width="525" fill="red" cursor="pointer"/><rect x="525" y="162" height="13" width="37.5" fill="gold" cursor="pointer"/><rect x="562.5" y="162" height="13" width="75" fill="#2e8b57" cursor="pointer"/><rect x="0" y="176" height="13" width="450" fill="red" cursor="pointer"/><rect x="450" y="176" height="13" width="75" fill="gold" cursor="pointer"/><rect x="525" y="176" height="13" width="112.5" fill="#2e8b57" cursor="pointer"/><rect x="0" y="190" height="13" width="450" fill="red" cursor="pointer"/><rect x="450" y="190" height="13" width="37.5" fill="gold" cursor="pointer"/><rect x="487.5" y="190" height="13" width="150" fill="#2e8b57" cursor="pointer"/><rect x="0" y="204" height="13" width="637.5" fill="#2e8b57" cursor="pointer"/></g><g fill="none" font-size="10" font-family="sans-serif" text-anchor="middle"><g class="tick" opacity="1" transform="translate(0,225) translate(0.5,0)"><line stroke="#000" y2="6" stroke-width=".25" stroke-opacity=".65"/></g><g class="tick" opacity="1" transform="translate(0,225) translate(38,0)"><line stroke="#000" y2="6" stroke-width=".25" stroke-opacity=".65"/></g><g class="tick" opacity="1" transform="translate(0,225) translate(75.5,0)"><line stroke="#000" y2="6" stroke-width=".25" stroke-opacity=".65"/></g><g class="tick" opacity="1" transform="translate(0,225) translate(113,0)"><line stroke="#000" y2="6" stroke-width=".25" stroke-opacity=".65"/></g><g class="tick" opacity="1" transform="translate(0,225) translate(150.5,0)"><line stroke="#000" y2="6" stroke-width=".25" stroke-opacity=".65"/></g><g class="tick" opacity="1" transform="translate(0,225) translate(188,0)"><line stroke="#000" y2="6" stroke-width=".25" stroke-opacity=".65"/></g><g class="tick" opacity="1" transform="translate(0,225) translate(225.5,0)"><line stroke="#000" y2="6" stroke-width=".25" stroke-opacity=".65"/></g><g class="tick" opacity="1" transform="translate(0,225) translate(263,0)"><line stroke="#000" y2="6" stroke-width=".25" stroke-opacity=".65"/></g><g class="tick" opacity="1" transform="translate(0,225) translate(300.5,0)"><line stroke="#000" y2="6" stroke-width=".25" stroke-opacity=".65"/></g><g class="tick" opacity="1" transform="translate(0,225) translate(338,0)"><line stroke="#000" y2="6" stroke-width=".25" stroke-opacity=".65"/></g><g class="tick" opacity="1" transform="translate(0,225) translate(375.5,0)"><line stroke="#000" y2="6" stroke-width=".25" stroke-opacity=".65"/></g><g class="tick" opacity="1" transform="translate(0,225) translate(413,0)"><line stroke="#000" y2="6" stroke-width=".25" stroke-opacity=".65"/></g><g class="tick" opacity="1" transform="translate(0,225) translate(450.5,0)"><line stroke="#000" y2="6" stroke-width=".25" stroke-opacity=".65"/></g><g class="tick" opacity="1" transform="translate(0,225) translate(488,0)"><line stroke="#000" y2="6" stroke-width=".25" stroke-opacity=".65"/></g><g class="tick" opacity="1" transform="translate(0,225) translate(525.5,0)"><line stroke="#000" y2="6" stroke-width=".25" stroke-opacity=".65"/></g><g class="tick" opacity="1" transform="translate(0,225) translate(563,0)"><line stroke="#000" y2="6" stroke-width=".25" stroke-opacity=".65"/></g><g class="tick" opacity="1" transform="translate(0,225) translate(600.5,0)"><line stroke="#000" y2="6" stroke-width=".25" stroke-opacity=".65"/></g></g><g fill="none" font-size="8px" font-family="monospace" text-anchor="middle"><g class="tick" opacity="1" transform="translate(0,225) translate(75.5,0)"><line stroke="#000" y2="6" stroke-width=".5" stroke-opacity="1"/><text fill="#000" y="9" dy=".71em">01/15/21</text></g><g class="tick" opacity="1" transform="translate(0,225) translate(263,0)"><line stroke="#000" y2="6" stroke-width=".5" stroke-opacity="1"/><text fill="#000" y="9" dy=".71em">01/20/21</text></g><g class="tick" opacity="1" transform="translate(0,225) translate(450.5,0)"><line stroke="#000" y2="6" stroke-width=".5" stroke-opacity="1"/><text fill="#000" y="9" dy=".71em">01/25/21</text></g></g><g transform="translate(0,245)"><rect x="185.25" y="10" width="9" height="9" rx="3" ry="3" fill="#2e8b57" stroke="none"/><text x="198.25" y="14.5" text-anchor="start" alignment-baseline="central" font-family="sans-serif" font-size="7px">Within Capacity</text><rect x="261.75" y="10" width="9" height="9" rx="3" ry="3" fill="gold" stroke="none"/><text x="274.75" y="14.5" text-anchor="start" alignment-baseline="central" font-family="sans-serif" font-size="7px">At Capacity</text><rect x="338.25" y="10" width="9" height="9" rx="3" ry="3" fill="red" stroke="none"/><text x="351.25" y="14.5" text-anchor="start" alignment-baseline="central" font-family="sans-serif" font-size="7px">Over Capacity</text></g><g><text x="-5" y="15.5" text-anchor="end" alignment-baseline="middle" font-family="sans-serif" font-size="10px">Anne Arundel Medical Center</text><text x="-5" y="29.5" text-anchor="end" alignment-baseline="middle" font-family="sans-serif" font-size="10px">Doctors Community Hospital</text><text x="-5" y="43.5" text-anchor="end" alignment-baseline="middle" font-family="sans-serif" font-size="10px">Holy Cross Hospital</text><text x="-5" y="57.5" text-anchor="end" alignment-baseline="middle" font-family="sans-serif" font-size="10px">Howard County General Hospital</text><text x="-5" y="71.5" text-anchor="end" alignment-baseline="middle" font-family="sans-serif" font-size="10px">Johns Hopkins Bayview Medical Center</text><text x="-5" y="85.5" text-anchor="end" alignment-baseline="middle" font-family="sans-serif" font-size="10px">The Johns Hopkins Hospital</text><text x="-5" y="99.5" text-anchor="end" alignment-baseline="middle" font-family="sans-serif" font-size="10px">MedStar Franklin Square Medical Center</text><text x="-5" y="113.5" text-anchor="end" alignment-baseline="middle" font-family="sans-serif" font-size="10px">MedStar Montgomery Medical Center</text><text x="-5" y="127.5" text-anchor="end" alignment-baseline="middle" font-family="sans-serif" font-size="10px">Northwest Hospital Center</text><text x="-5" y="141.5" text-anchor="end" alignment-baseline="middle" font-family="sans-serif" font-size="10px">Sinai Hospital of Baltimore</text><text x="-5" y="155.5" text-anchor="end" alignment-baseline="middle" font-family="sans-serif" font-size="10px">TidalHealth Peninsula Regional, Inc.</text><text x="-5" y="169.5" text-anchor="end" alignment-baseline="middle" font-family="sans-serif" font-size="10px">University of Maryland Baltimore Washington Medical Center</text><text x="-5" y="183.5" text-anchor="end" alignment-baseline="middle" font-family="sans-serif" font-size="10px">University of Maryland Charles Regional Medical Center</text><text x="-5" y="197.5" text-anchor="end" alignment-baseline="middle" font-family="sans-serif" font-size="10px">University of Maryland Prince George’s Hospital Center</text><text x="-5" y="211.5" text-anchor="end" alignment-baseline="middle" font-family="sans-serif" font-size="10px">University of Maryland Medical Center</text></g><g pointer-events="none" font-family="monospace" font-size="7" text-anchor="middle" transform="translate(318.75,204)" display="none"><rect x="-87.7" y="-35" width="175.4" height="30" fill="#fff" stroke="gray" stroke-width="1.5"/><rect transform="translate(0, -39) rotate(45)" width="12" height="12" fill="#fff" stroke="gray" stroke-width="1" display="none"/><rect transform="translate(0, -18) rotate(45)" width="12" height="12" fill="#fff" stroke="gray" stroke-width="1"/><rect x="-87.7" y="-35" width="175.4" height="30" fill="#fff"/><text y="-26">University of Maryland Medical Center</text><text y="-17">Within Capacity</text><text y="-8">2021-01-14 - 2021-01-30</text></g></svg>