<?xml version="1.0" standalone="no"?>
<svg xmlns:xlink="http://www.w3.org/1999/xlink" xmlns="http://www.w3.org/2000/svg" viewBox="0,0,1000,600" class="figure" figure-name="transfer-flows"><text x="500" y="15" text-anchor="middle" fill="black" style="font-family: Helvetica; font-size: 18px;">Total Optimal Patient Transfers in Maryland</text><text x="995" y="300" text-anchor="middle" fill="black" transform="rotate(-90,995,300)" style="font-family: Helvetica; font-size: 18px;">Patients Received</text><text x="15" y="300" text-anchor="middle" fill="black" transform="rotate(-90,15,300)" style="font-family: Helvetica; font-size: 18px;">Patients Sent</text><g><rect x="30" y="25" height="80.45403960709004" width="15" fill="#0d0887"><title>Adventist Healthcare Shady Grove Medical Center
14</title></rect><rect x="30" y="115.45403960709004" height="19.140585396124635" width="15" fill="#5c01a6"><title>Atlantic General Hospital
3</title></rect><rect x="30" y="144.59462500321467" height="65.86137540424198" width="15" fill="#7e03a8"><title>Holy Cross Hospital
12</title></rect><rect x="30" y="220.4560004074565" height="110.64945492740526" width="15" fill="#9c179e"><title>Howard County General Hospital
20</title></rect><rect x="30" y="341.10545533486174" height="90.60790160713395" width="15" fill="#de5f65"><title>MedStar Franklin Square Medical Center
16</title></rect><rect x="30" y="441.7133569419957" height="153.2866430580043" width="15" fill="#fdb42f"><title>University of Maryland Prince George’s Hospital Center
27</title></rect><rect x="955" y="25" height="7.494748849862361" width="15" fill="#3a049a"><title>Anne Arundel Medical Center
1</title></rect><rect x="955" y="42.49474884986236" height="93.50732564503616" width="15" fill="#b52f8c"><title>Johns Hopkins Bayview Medical Center
17</title></rect><rect x="955" y="146.00207449489852" height="90.60790160713384" width="15" fill="#cc4778"><title>The Johns Hopkins Hospital
16</title></rect><rect x="955" y="246.60997610203236" height="64.45392591255813" width="15" fill="#ed7953"><title>Sinai Hospital of Baltimore
11</title></rect><rect x="955" y="321.0639020145908" height="146.50933908246031" width="15" fill="#f89540"><title>TidalHealth Peninsula Regional, Inc.
26</title></rect><rect x="955" y="477.5732410970511" height="117.4267589029489" width="15" fill="#fbd524"><title>University of Maryland Medical Center
21</title></rect></g><g font-family="sans-serif" font-size="11" fill="black"><text x="51" y="65.22701980354502" dy="0.35em" text-anchor="start">Adventist Healthcare Shady Grove Medical Center</text><text x="51" y="125.02433230515236" dy="0.35em" text-anchor="start">Atlantic General Hospital</text><text x="51" y="177.52531270533566" dy="0.35em" text-anchor="start">Holy Cross Hospital</text><text x="51" y="275.7807278711591" dy="0.35em" text-anchor="start">Howard County General Hospital</text><text x="51" y="386.4094061384287" dy="0.35em" text-anchor="start">MedStar Franklin Square Medical Center</text><text x="51" y="518.3566784709978" dy="0.35em" text-anchor="start">University of Maryland Prince George’s Hospital Center</text><text x="949" y="28.74737442493118" dy="0.35em" text-anchor="end">Anne Arundel Medical Center</text><text x="949" y="89.24841167238044" dy="0.35em" text-anchor="end">Johns Hopkins Bayview Medical Center</text><text x="949" y="191.30602529846544" dy="0.35em" text-anchor="end">The Johns Hopkins Hospital</text><text x="949" y="278.83693905831143" dy="0.35em" text-anchor="end">Sinai Hospital of Baltimore</text><text x="949" y="394.31857155582094" dy="0.35em" text-anchor="end">TidalHealth Peninsula Regional, Inc.</text><text x="949" y="536.2866205485255" dy="0.35em" text-anchor="end">University of Maryland Medical Center</text></g><g fill="none" stroke-opacity="0.5"><g style="mix-blend-mode: multiply;"><linearGradient id="gradient-0" gradientUnits="userSpaceOnUse" x1="45" x2="955"><stop offset="0%" stop-color="#0d0887"/><stop offset="100%" stop-color="#3a049a"/></linearGradient><path d="M45,28.747374424931188C500,28.747374424931188,500,28.747374424931188,955,28.747374424931188" stroke="url(#gradient-0)" stroke-width="7.4947488498623756"/></g><g style="mix-blend-mode: multiply;"><linearGradient id="gradient-1" gradientUnits="userSpaceOnUse" x1="45" x2="955"><stop offset="0%" stop-color="#0d0887"/><stop offset="100%" stop-color="#b52f8c"/></linearGradient><path d="M45,101.20135718475527C500,101.20135718475527,500,131.7493920725638,955,131.7493920725638" stroke="url(#gradient-1)" stroke-width="8.505364844669534"/></g><g style="mix-blend-mode: multiply;"><linearGradient id="gradient-2" gradientUnits="userSpaceOnUse" x1="45" x2="955"><stop offset="0%" stop-color="#0d0887"/><stop offset="100%" stop-color="#ed7953"/></linearGradient><path d="M45,64.72171180614143C500,64.72171180614143,500,278.83693905831143,955,278.83693905831143" stroke="url(#gradient-2)" stroke-width="64.45392591255812"/></g><g style="mix-blend-mode: multiply;"><linearGradient id="gradient-3" gradientUnits="userSpaceOnUse" x1="45" x2="955"><stop offset="0%" stop-color="#5c01a6"/><stop offset="100%" stop-color="#b52f8c"/></linearGradient><path d="M45,125.02433230515237C500,125.02433230515237,500,52.06504154792469,955,52.06504154792469" stroke="url(#gradient-3)" stroke-width="19.140585396124663"/></g><g style="mix-blend-mode: multiply;"><linearGradient id="gradient-4" gradientUnits="userSpaceOnUse" x1="45" x2="955"><stop offset="0%" stop-color="#7e03a8"/><stop offset="100%" stop-color="#b52f8c"/></linearGradient><path d="M45,177.5253127053357C500,177.5253127053357,500,94.56602194810803,955,94.56602194810803" stroke="url(#gradient-4)" stroke-width="65.86137540424201"/></g><g style="mix-blend-mode: multiply;"><linearGradient id="gradient-5" gradientUnits="userSpaceOnUse" x1="45" x2="955"><stop offset="0%" stop-color="#9c179e"/><stop offset="100%" stop-color="#fbd524"/></linearGradient><path d="M45,275.7807278711591C500,275.7807278711591,500,539.6752725362975,955,539.6752725362975" stroke="url(#gradient-5)" stroke-width="110.64945492740524"/></g><g style="mix-blend-mode: multiply;"><linearGradient id="gradient-6" gradientUnits="userSpaceOnUse" x1="45" x2="955"><stop offset="0%" stop-color="#de5f65"/><stop offset="100%" stop-color="#cc4778"/></linearGradient><path d="M45,386.4094061384287C500,386.4094061384287,500,191.3060252984655,955,191.3060252984655" stroke="url(#gradient-6)" stroke-width="90.60790160713398"/></g><g style="mix-blend-mode: multiply;"><linearGradient id="gradient-7" gradientUnits="userSpaceOnUse" x1="45" x2="955"><stop offset="0%" stop-color="#fdb42f"/><stop offset="100%" stop-color="#f89540"/></linearGradient><path d="M45,521.7453304587696C500,521.7453304587696,500,394.31857155582094,955,394.31857155582094" stroke="url(#gradient-7)" stroke-width="146.5093390824603"/></g><g style="mix-blend-mode: multiply;"><linearGradient id="gradient-8" gradientUnits="userSpaceOnUse" x1="45" x2="955"><stop offset="0%" stop-color="#fdb42f"/><stop offset="100%" stop-color="#fbd524"/></linearGradient><path d="M45,445.1020089297676C500,445.1020089297676,500,480.961893084823,955,480.961893084823" stroke="url(#gradient-8)" stroke-width="6.777303975543779"/></g></g><g pointer-events="none" display="none" font-family="monospace" font-size="12" text-anchor="middle"><rect x="-60" y="10" width="120" height="35" fill="white" stroke="gray" stroke-width="1.5"/><rect transform="translate(0, 2) rotate(45)" width="12" height="12" fill="white" stroke="gray" stroke-width="1"/><rect transform="translate(0, 35) rotate(45)" width="12" height="12" fill="white" stroke="gray" stroke-width="1"/><rect x="-60" y="10" width="120" height="35" fill="white"/><text y="24"/><text y="38"/></g></svg>