<svg enable-background="new 0 0 266 171" viewBox="0 0 266 171" xmlns="http://www.w3.org/2000/svg" xmlns:xlink="http://www.w3.org/1999/xlink"><clipPath id="a"><path d="m0 0h266v171h-266z"/></clipPath><clipPath id="b"><path d="m112.874 43.001h40.251v43.367h-40.251z"/></clipPath><clipPath id="c"><path d="m43 93.168h180v24.58h-180z"/></clipPath><g fill="#002361"><path clip-path="url(#a)" d="m75.986 122.932c0-.768-.025-2.193-.235-2.564-.088-.151-.311-.237-.62-.262l-.31-.024c-.074-.088-.05-.248.024-.298.472.025.93.037 1.413.037.521 0 .855-.012 1.302-.037.099.062.086.222.025.298l-.298.024c-.31.025-.545.137-.62.299-.172.408-.172 1.832-.172 2.527v1.402c0 1.077-.174 2.217-.869 2.959-.533.584-1.451.907-2.367.907-.855 0-1.71-.163-2.317-.682-.656-.545-.967-1.449-.967-2.924v-2.926c0-1.289-.024-1.5-.744-1.562l-.308-.024c-.075-.05-.05-.261.024-.298.619.025 1.041.037 1.536.037.509 0 .918-.012 1.524-.037.075.037.1.248.026.298l-.298.024c-.719.062-.743.273-.743 1.562v2.678c0 1.994.619 3.307 2.515 3.307 1.797 0 2.479-1.41 2.479-3.295z"/><path clip-path="url(#a)" d="m92.179 125.895c0 .371 0 1.846.037 2.168-.024.074-.098.137-.235.137-.148-.211-.508-.645-1.585-1.871l-2.876-3.272c-.335-.385-1.177-1.4-1.438-1.674h-.024c-.05.149-.063.436-.063.805v2.701c0 .584.013 2.195.224 2.567.074.136.322.21.633.234l.383.039c.074.098.062.246-.025.309-.557-.024-.991-.038-1.45-.038-.52 0-.854.014-1.289.038-.087-.063-.099-.235-.024-.309l.334-.039c.286-.037.484-.111.546-.248.173-.443.161-1.957.161-2.553v-3.58c0-.348-.012-.607-.273-.893-.174-.173-.472-.259-.768-.296l-.21-.026c-.075-.074-.075-.26.023-.31.521.037 1.179.037 1.4.037.2 0 .41-.012.571-.037.248.632 1.711 2.269 2.119 2.726l1.202 1.352c.856.953 1.463 1.648 2.046 2.244h.024c.05-.063.05-.262.05-.522v-2.652c0-.582-.013-2.193-.248-2.564-.074-.114-.273-.188-.769-.248l-.21-.026c-.086-.074-.075-.273.025-.31.569.025.991.037 1.462.037.532 0 .855-.012 1.275-.037.1.062.1.236.026.31l-.173.026c-.397.06-.645.16-.694.259-.211.448-.187 1.983-.187 2.553z"/><path clip-path="url(#a)" d="m101.41 121.705c0-1.314-.025-1.525-.756-1.586l-.31-.025c-.075-.051-.049-.274.025-.311.619.026 1.041.037 1.562.037.495 0 .916-.011 1.536-.037.074.037.098.26.024.311l-.309.025c-.731.061-.756.272-.756 1.586v4.412c0 1.313.025 1.486.756 1.572l.309.039c.074.049.05.272-.024.309-.62-.023-1.041-.037-1.536-.037-.521 0-.943.014-1.562.037-.074-.037-.1-.234-.025-.309l.31-.039c.731-.086.756-.259.756-1.572z"/><path clip-path="url(#a)" d="m111.446 121.135c-.285-.693-.471-.955-1.004-1.016l-.223-.025c-.087-.074-.075-.248.025-.311.359.026.755.038 1.288.038.546 0 .979-.012 1.5-.038.087.051.112.237.025.311l-.186.025c-.471.061-.57.135-.583.235.025.125.235.795.62 1.736.57 1.438 1.14 2.861 1.761 4.275.382-.818.904-2.093 1.189-2.751.359-.842.942-2.243 1.152-2.776.1-.26.112-.396.112-.484 0-.086-.124-.186-.558-.235l-.223-.025c-.087-.074-.062-.26.025-.311.347.026.818.038 1.288.038.41 0 .794-.012 1.202-.038.087.051.087.248.026.311l-.372.025c-.297.024-.484.174-.645.434-.347.582-.83 1.588-1.388 2.85l-.669 1.523c-.496 1.143-1.078 2.578-1.289 3.236-.037.024-.087.037-.135.037-.063 0-.125-.013-.187-.037-.137-.521-.359-1.127-.57-1.648z"/><path clip-path="url(#a)" d="m126.364 121.682c0-1.291-.025-1.477-.755-1.562l-.199-.026c-.074-.051-.049-.273.025-.31.534.025.954.037 1.462.037h2.33c.793 0 1.525 0 1.673-.037.074.211.148 1.103.199 1.65-.051.074-.248.098-.31.023-.186-.582-.297-1.015-.943-1.177-.259-.063-.656-.075-1.202-.075h-.892c-.37 0-.37.026-.37.497v2.478c0 .348.037.348.407.348h.72c.519 0 .904-.026 1.052-.075.151-.05.237-.125.299-.435l.1-.508c.06-.074.27-.074.321.012 0 .299-.051.783-.051 1.254 0 .445.051.918.051 1.187-.051.088-.261.088-.321.014l-.114-.482c-.048-.223-.134-.409-.382-.471-.174-.051-.473-.063-.955-.063h-.72c-.37 0-.407.012-.407.336v1.746c0 .657.037 1.078.233 1.287.15.149.41.286 1.501.286.955 0 1.313-.049 1.587-.186.222-.123.556-.557.878-1.201.088-.063.262-.026.31.088-.086.433-.396 1.386-.558 1.72-1.115-.023-2.217-.037-3.32-.037h-1.116c-.533 0-.954.014-1.686.037-.075-.037-.098-.234-.024-.308l.408-.039c.707-.061.769-.248.769-1.547z"/><path clip-path="url(#a)" d="m139.794 121.694c0-1.178-.037-1.389-.545-1.452l-.397-.048c-.086-.063-.086-.262.014-.311.692-.063 1.549-.1 2.762-.1.77 0 1.499.063 2.07.373.594.309 1.028.868 1.028 1.737 0 1.176-.929 1.82-1.548 2.068-.062.074 0 .199.061.299.991 1.598 1.649 2.59 2.492 3.295.211.185.521.322.855.346.063.025.074.125.012.173-.111.037-.31.063-.545.063-1.054 0-1.686-.311-2.564-1.561-.324-.459-.831-1.314-1.216-1.871-.186-.273-.385-.396-.88-.396-.559 0-.582.011-.582.273v1.561c0 1.299.023 1.449.744 1.547l.259.039c.074.06.051.271-.024.308-.557-.023-.979-.037-1.475-.037-.521 0-.968.014-1.549.037-.074-.037-.1-.222-.025-.308l.309-.039c.719-.086.744-.248.744-1.547zm1.017 1.771c0 .223 0 .359.037.41.037.037.223.061.855.061.447 0 .918-.049 1.276-.323.334-.259.619-.693.619-1.535 0-.98-.605-1.91-1.983-1.91-.767 0-.804.049-.804.397z"/><path clip-path="url(#a)" d="m154.771 128.199c-1.04 0-1.698-.322-1.934-.459-.148-.273-.308-1.152-.334-1.734.063-.088.248-.112.299-.037.185.632.693 1.845 2.131 1.845 1.04 0 1.55-.679 1.55-1.424 0-.546-.113-1.154-1.017-1.734l-1.176-.769c-.621-.411-1.34-1.116-1.34-2.131 0-1.178.918-2.133 2.528-2.133.384 0 .829.074 1.153.16.16.051.333.074.433.074.111.299.223.992.223 1.514-.049.074-.248.111-.309.037-.161-.596-.495-1.402-1.686-1.402-1.213 0-1.475.806-1.475 1.377 0 .72.595 1.238 1.054 1.523l.991.621c.781.483 1.55 1.201 1.55 2.379 0 1.363-1.029 2.293-2.641 2.293"/><path clip-path="url(#a)" d="m165.835 121.705c0-1.314-.023-1.525-.755-1.586l-.311-.025c-.074-.051-.048-.274.026-.311.621.026 1.04.037 1.561.037.497 0 .917-.011 1.538-.037.075.037.1.26.024.311l-.311.025c-.729.061-.754.272-.754 1.586v4.412c0 1.313.025 1.486.754 1.572l.311.039c.076.049.051.272-.024.309-.621-.023-1.041-.037-1.538-.037-.521 0-.94.014-1.561.037-.074-.037-.1-.234-.026-.309l.311-.039c.732-.086.755-.259.755-1.572z"/><path clip-path="url(#a)" d="m179.594 126.143c0 1.299.023 1.486.741 1.547l.399.039c.074.049.049.271-.026.309-.707-.024-1.128-.038-1.624-.038s-.928.014-1.723.038c-.075-.038-.098-.249 0-.309l.447-.039c.706-.061.768-.248.768-1.547v-5.541c0-.385 0-.396-.372-.396h-.681c-.533 0-1.214.025-1.525.31-.296.273-.421.545-.557.856-.098.074-.274.011-.322-.086.199-.559.384-1.354.47-1.848.039-.024.199-.037.237 0 .073.396.483.383 1.053.383h5.02c.669 0 .78-.024.966-.346.062-.023.199-.012.222.037-.136.508-.222 1.512-.185 1.885-.049.098-.26.098-.323.023-.037-.308-.125-.767-.309-.904-.285-.211-.756-.31-1.439-.31h-.879c-.372 0-.358.011-.358.421z"/><path clip-path="url(#a)" d="m193.717 126.117c0 1.324.074 1.523.744 1.572l.473.039c.073.075.049.272-.026.309-.769-.024-1.191-.037-1.686-.037-.522 0-.966.013-1.624.037-.074-.037-.1-.234-.026-.309l.387-.039c.718-.074.741-.248.741-1.572v-.633c0-.681-.037-.842-.395-1.535l-1.462-2.852c-.422-.818-.608-.88-.98-.941l-.347-.062c-.074-.088-.061-.26.025-.311.396.025.843.037 1.439.037.569 0 1.014-.012 1.325-.037.111.037.111.236.037.311l-.16.025c-.434.061-.522.123-.522.223 0 .123.323.83.385.955.458.916.917 1.894 1.401 2.752.382-.659.792-1.377 1.164-2.096.347-.645.805-1.488.805-1.637 0-.074-.222-.16-.52-.197l-.223-.025c-.086-.088-.074-.26.025-.311.445.025.806.037 1.189.037.384 0 .731-.012 1.153-.037.1.063.112.236.026.311l-.348.062c-.644.111-1.017.893-1.636 1.959l-.78 1.35c-.547.943-.584 1.054-.584 2.007z"/><path clip-path="url(#b)" d="m133.878 86.021c1.061-.586 2.34-1.393 3.725-2.438v-12.533l-3.725-2.478z"/><path clip-path="url(#b)" d="m133.878 59.894 3.725 2.48v-6.333c-1.24-.058-2.482-.091-3.725-.101z"/><path clip-path="url(#b)" d="m145.055 56.7c-1.238-.159-2.48-.288-3.727-.397v8.551l3.727 2.481z"/><path clip-path="url(#b)" d="m141.329 73.53v6.816c1.253-1.246 2.515-2.687 3.727-4.326v-.011z"/><path clip-path="url(#b)" d="m145.055 76.02c.002-.002.003-.004.005-.01l-.005-.002z"/><path clip-path="url(#b)" d="m148.777 57.261v12.552l.011.006c1.625-3.366 2.936-7.294 3.674-11.862l-.127-.025c-1.178-.246-2.366-.467-3.558-.671"/><path clip-path="url(#b)" d="m137.604 62.377v8.675l3.725 2.478v-8.675z"/><path clip-path="url(#b)" d="m145.055 67.335v8.674l.005.002c1.332-1.801 2.598-3.854 3.717-6.172v-.025z"/><path clip-path="url(#b)" d="m148.777 69.839c.005-.006.008-.014.011-.02l-.011-.005z"/><path clip-path="url(#b)" d="m125.704 71.616c1.1-.305 2.067-.918 2.807-1.746-.406-.147-.88-.293-1.428-.414-.405.9-.915 1.619-1.379 2.16"/><path clip-path="url(#b)" d="m119.793 69.872c.74.828 1.71 1.443 2.811 1.746-.464-.543-.975-1.262-1.381-2.164-.549.123-1.023.27-1.43.418"/><path clip-path="url(#b)" d="m123.612 60.836c-.405.445-.879 1.072-1.274 1.864.399.053.823.09 1.274.106z"/><path clip-path="url(#b)" d="m127.459 68.44c.672.158 1.245.346 1.712.531.438-.732.724-1.56.806-2.453h-2.173c-.044.695-.167 1.338-.345 1.922"/><path clip-path="url(#b)" d="m122.603 60.344c-1.101.303-2.07.919-2.811 1.747.408.147.881.293 1.43.415.406-.9.917-1.619 1.381-2.162"/><path clip-path="url(#b)" d="m128.51 62.091c-.739-.827-1.707-1.442-2.807-1.745.464.542.976 1.262 1.38 2.16.548-.121 1.022-.268 1.427-.415"/><path clip-path="url(#b)" d="m127.803 65.444h2.173c-.082-.892-.367-1.722-.806-2.453-.467.184-1.039.372-1.712.53.178.585.301 1.227.345 1.923"/><path clip-path="url(#b)" d="m124.687 71.132c.406-.445.885-1.072 1.282-1.869-.401-.053-.829-.09-1.282-.108z"/><path clip-path="url(#b)" d="m123.612 66.518h-2.033c.047.623.169 1.195.34 1.717.52-.08 1.085-.133 1.693-.155z"/><path clip-path="url(#b)" d="m124.687 68.081c.61.021 1.179.074 1.701.154.17-.521.293-1.093.339-1.716h-2.04z"/><path clip-path="url(#b)" d="m125.973 62.7c-.397-.801-.878-1.432-1.286-1.875v1.98c.455-.015.885-.052 1.286-.105"/><path clip-path="url(#b)" d="m126.727 65.444c-.046-.624-.167-1.197-.337-1.718-.523.079-1.092.134-1.703.156v1.562z"/><path clip-path="url(#b)" d="m122.338 69.262c.396.789.869 1.416 1.274 1.863v-1.97c-.452.019-.876.055-1.274.107"/><path clip-path="url(#b)" d="m120.847 63.521c-.675-.158-1.247-.346-1.717-.53-.435.731-.721 1.561-.804 2.453h2.176c.044-.696.167-1.338.345-1.923"/><path clip-path="url(#b)" d="m123.612 63.882c-.608-.021-1.173-.076-1.693-.155-.171.521-.293 1.093-.34 1.717h2.033z"/><path clip-path="url(#b)" d="m120.503 66.518h-2.176c.083.893.368 1.721.804 2.453.47-.185 1.042-.373 1.717-.533-.178-.582-.301-1.225-.345-1.92"/><path clip-path="url(#b)" d="m113.537 57.964c2.735 16.902 13.316 25.15 18.586 28.056v-30.08c-6.229.058-12.435.725-18.457 1.996zm10.613 1.09c3.82 0 6.928 3.107 6.928 6.927 0 3.816-3.108 6.926-6.928 6.926-3.819 0-6.926-3.11-6.926-6.926 0-3.82 3.107-6.927 6.926-6.927"/><path clip-path="url(#b)" d="m152.323 45.043-.014-.007c-6.229-1.329-12.687-2.035-19.309-2.035-6.632 0-13.098.708-19.332 2.042l-.027.007c-.44.109-.766.506-.766.981l.002 3.494c0 2.295.139 4.461.39 6.515 6.474-1.37 13.113-2.054 19.751-2.054 6.63 0 13.259.684 19.718 2.048.248-2.05.388-4.216.388-6.509l.001-3.494c0-.487-.344-.894-.802-.988m-4.352 8.648c-4.845-.92-10.411-1.202-14.969-1.202h-.004c-4.558 0-10.125.282-14.968 1.202-.183.037-.345-.13-.244-.324l3.187-7.036c.032-.065 2.091-1.084 2.091-1.084 2.617-.55 6.925-.308 9.931.798h.011c3.006-1.106 7.313-1.348 9.93-.798 0 0 2.058 1.019 2.091 1.084l3.185 7.036c.103.194-.058.361-.241.324"/><path clip-path="url(#b)" d="m142.106 46.454 1.34 3.588c-3.122-.429-5.709-.234-9.528 1.017v.336c3.609-.136 8.173-.337 11.863.456l-2.011-4.625z"/><path clip-path="url(#b)" d="m122.51 50.042 1.34-3.588-1.663.773-2.011 4.625c3.688-.794 8.253-.593 11.861-.456v-.336c-3.818-1.252-6.406-1.447-9.527-1.018"/><path clip-path="url(#c)" d="m48.148 97.578c0-3.159-.283-3.5-1.963-3.643l-.71-.056c-.171-.114-.114-.626.057-.711 1.649.056 2.616.085 3.811.085 1.139 0 2.106-.029 3.243-.085.171.085.229.597.058.711l-.427.056c-1.678.229-1.735.625-1.735 3.643v10.555c0 2.246-.115 4.209-.654 5.517-.94 2.278-2.959 4.098-5.606 4.098-.34 0-1.222-.029-1.222-.598 0-.484.425-1.31 1.023-1.31.342 0 .684.056 1.054.172.398.113.796.199 1.194.199.598 0 .94-.342 1.139-.74.654-1.338.738-5.604.738-7.141z"/><path clip-path="url(#c)" d="m52.584 104.277c0-4.799 3.601-8.472 8.544-8.472 5.544 0 8.328 4.008 8.328 8.232 0 4.848-3.695 8.375-8.328 8.375-5.328 0-8.544-3.815-8.544-8.135m14.472.504c0-3.959-1.752-8.232-6.336-8.232-2.496 0-5.735 1.705-5.735 6.961 0 3.55 1.727 8.16 6.456 8.16 2.88 0 5.615-2.16 5.615-6.889"/><path clip-path="url(#c)" d="m74.908 104.277c-1.151 0-1.2.049-1.2.77v3.382c0 2.52.12 2.856 1.463 3l.697.073c.144.095.096.527-.048.599-1.296-.049-2.112-.072-3.049-.072-1.031 0-1.848.049-2.784.072-.143-.072-.191-.457-.047-.599l.408-.073c1.343-.24 1.392-.48 1.392-3v-8.64c0-2.52-.168-2.927-1.416-3.024l-.624-.048c-.145-.096-.096-.528.047-.6 1.176.023 1.993.072 3.024.072.937 0 1.753-.023 2.784-.072.145.072.194.504.048.6l-.456.048c-1.39.144-1.439.504-1.439 3.024v2.761c0 .743.049.768 1.2.768h6.864c1.152 0 1.199-.025 1.199-.768v-2.761c0-2.52-.047-2.88-1.463-3.024l-.456-.048c-.144-.096-.096-.528.048-.6 1.104.049 1.919.072 2.903.072.937 0 1.753-.023 2.833-.072.143.072.192.504.048.6l-.504.048c-1.392.144-1.44.504-1.44 3.024v8.64c0 2.52.048 2.832 1.44 3l.576.073c.143.095.096.527-.049.599-1.151-.049-1.967-.072-2.904-.072-.984 0-1.847.023-2.903.072-.144-.072-.192-.457-.048-.599l.456-.073c1.463-.24 1.463-.48 1.463-3v-3.382c0-.721-.047-.77-1.199-.77z"/><path clip-path="url(#c)" d="m103.349 107.949c0 .721 0 3.576.072 4.199-.047.145-.191.264-.455.264-.289-.406-.984-1.246-3.072-3.623l-5.568-6.336c-.649-.744-2.28-2.712-2.784-3.238h-.048c-.096.287-.12.838-.12 1.558v5.233c0 1.127.024 4.248.432 4.966.145.266.624.409 1.224.457l.743.073c.145.191.121.48-.047.599-1.08-.048-1.92-.072-2.808-.072-1.008 0-1.657.024-2.497.072-.167-.119-.191-.457-.047-.599l.648-.073c.552-.072.936-.216 1.056-.48.335-.863.312-3.791.312-4.943v-6.936c0-.673-.023-1.178-.528-1.728-.336-.336-.911-.505-1.488-.577l-.409-.047c-.143-.144-.143-.503.049-.601 1.008.072 2.28.072 2.712.072.384 0 .792-.023 1.103-.072.481 1.225 3.313 4.393 4.105 5.281l2.327 2.615c1.656 1.848 2.832 3.192 3.961 4.344h.047c.097-.119.097-.504.097-1.008v-5.136c0-1.128-.025-4.247-.48-4.968-.144-.216-.529-.36-1.488-.48l-.408-.047c-.168-.144-.145-.529.047-.601 1.105.049 1.921.072 2.833.072 1.032 0 1.655-.023 2.471-.072.192.121.192.457.049.601l-.336.047c-.768.12-1.249.313-1.345.504-.407.864-.36 3.84-.36 4.944z"/><path clip-path="url(#c)" d="m109.692 112.412c-2.016 0-3.287-.623-3.744-.887-.287-.529-.6-2.232-.649-3.359.122-.17.481-.217.577-.072.36 1.222 1.343 3.576 4.128 3.576 2.016 0 3.001-1.321 3.001-2.76 0-1.057-.216-2.232-1.969-3.361l-2.28-1.489c-1.199-.791-2.591-2.16-2.591-4.127 0-2.28 1.775-4.127 4.895-4.127.744 0 1.609.144 2.233.311.311.098.647.145.838.145.216.575.433 1.92.433 2.927-.096.145-.48.216-.601.073-.311-1.153-.958-2.713-3.263-2.713-2.352 0-2.856 1.56-2.856 2.666 0 1.39 1.153 2.398 2.04 2.951l1.92 1.199c1.513.936 3 2.328 3 4.608 0 2.64-1.992 4.439-5.112 4.439"/><path clip-path="url(#c)" d="m129.049 102.841c-1.365 0-1.422.055-1.422.908v4.012c0 2.986.142 3.385 1.735 3.557l.826.086c.17.113.114.625-.058.708-1.536-.056-2.503-.083-3.612-.083-1.224 0-2.192.056-3.301.083-.171-.083-.228-.539-.057-.708l.484-.086c1.592-.286 1.65-.571 1.65-3.557v-10.242c0-2.987-.199-3.471-1.678-3.584l-.74-.057c-.171-.113-.114-.626.057-.711 1.393.028 2.361.085 3.585.085 1.109 0 2.076-.028 3.3-.085.17.085.227.598.055.711l-.54.057c-1.649.172-1.706.597-1.706 3.584v3.272c0 .882.057.909 1.422.909h8.137c1.365 0 1.422-.027 1.422-.909v-3.272c0-2.987-.057-3.412-1.736-3.584l-.541-.057c-.17-.113-.113-.626.058-.711 1.307.057 2.276.085 3.442.085 1.11 0 2.077-.028 3.358-.085.17.085.227.598.055.711l-.596.057c-1.65.172-1.707.597-1.707 3.584v10.242c0 2.986.057 3.357 1.707 3.557l.682.086c.171.113.115.625-.057.708-1.365-.056-2.332-.083-3.442-.083-1.166 0-2.19.027-3.442.083-.171-.083-.228-.539-.058-.708l.541-.086c1.736-.286 1.736-.571 1.736-3.557v-4.012c0-.853-.057-.908-1.422-.908z"/><path clip-path="url(#c)" d="m143.15 104.277c0-4.799 3.602-8.472 8.544-8.472 5.545 0 8.328 4.008 8.328 8.232 0 4.848-3.695 8.375-8.328 8.375-5.327 0-8.544-3.815-8.544-8.135m14.472.504c0-3.959-1.751-8.232-6.336-8.232-2.495 0-5.735 1.705-5.735 6.961 0 3.55 1.728 8.16 6.456 8.16 2.881 0 5.615-2.16 5.615-6.889"/><path clip-path="url(#c)" d="m164.366 108.429c0 2.52.048 2.832 1.584 3l.648.072c.144.119.097.528-.048.6-1.368-.049-2.16-.072-3.12-.072-1.008 0-1.872.023-2.927.072-.145-.072-.193-.457-.048-.6l.504-.072c1.391-.191 1.439-.48 1.439-3v-8.855c0-2.041-.048-2.449-1.128-2.569l-.864-.097c-.168-.143-.144-.503.049-.599 1.271-.169 2.76-.193 4.751-.193 1.992 0 3.48.264 4.608.961 1.104.696 1.92 1.944 1.92 3.599 0 2.208-1.367 3.314-2.4 3.817-1.056.504-2.327.719-3.312.719-.168-.07-.168-.431-.024-.478 2.592-.481 3.528-1.946 3.528-4.033 0-2.329-1.368-3.839-3.863-3.839-1.273 0-1.297.094-1.297.864z"/><path clip-path="url(#c)" d="m174.352 99.789c0-2.52-.049-2.904-1.44-3.023l-.601-.048c-.144-.097-.095-.529.048-.601 1.176.049 1.944.072 3.023.072.937 0 1.753-.023 2.785-.072.144.072.193.504.047.601l-.455.048c-1.392.143-1.44.503-1.44 3.023v2.762c0 .455.048.91.313.91.215 0 .503-.143.671-.264.336-.287.96-.912 1.225-1.152l2.591-2.567c.456-.433 1.632-1.657 1.872-1.992.121-.169.169-.289.169-.385 0-.095-.096-.167-.409-.239l-.648-.144c-.168-.169-.144-.48.048-.601.84.049 1.8.072 2.64.072s1.656-.023 2.375-.072c.169.121.193.457.049.601-.624.048-1.559.288-2.231.672-.672.383-2.018 1.511-3.361 2.784l-2.16 2.039c-.336.338-.552.553-.552.744 0 .17.144.361.456.744 2.28 2.615 4.128 4.776 6.001 6.744.576.576 1.012.889 1.828.985l.463.072c.169.119.12.527-.049.6-.624-.049-1.282-.073-2.41-.073-.984 0-1.826.024-2.929.073-.168-.049-.239-.458-.096-.6l.552-.098c.337-.047.576-.119.576-.238 0-.145-.168-.336-.337-.553-.456-.576-1.079-1.224-1.991-2.256l-1.92-2.16c-1.368-1.535-1.752-2.015-2.328-2.015-.36 0-.408.312-.408 1.152v3.096c0 2.519.048 2.855 1.392 3l.649.072c.142.096.096.527-.049.6-1.176-.049-1.992-.073-2.929-.073-.983 0-1.799.024-2.783.073-.143-.073-.192-.432-.048-.6l.481-.072c1.271-.192 1.32-.481 1.32-3z"/><path clip-path="url(#c)" d="m190.825 99.837c0-2.544-.048-2.953-1.465-3.072l-.598-.048c-.145-.097-.097-.528.046-.601 1.201.049 2.017.073 3.025.073.96 0 1.776-.024 2.975-.073.145.073.193.504.049.601l-.6.048c-1.416.119-1.464.528-1.464 3.072v8.543c0 2.545.048 2.881 1.464 3.049l.6.072c.144.096.096.527-.049.6-1.199-.049-2.015-.073-2.975-.073-1.008 0-1.733.024-2.932.073-.144-.073-.192-.457-.048-.6l.507-.072c1.417-.168 1.465-.504 1.465-3.049z"/><path clip-path="url(#c)" d="m211.585 107.949c0 .721 0 3.576.073 4.199-.048.145-.192.264-.456.264-.288-.406-.984-1.246-3.072-3.623l-5.568-6.336c-.648-.744-2.281-2.712-2.784-3.238h-.047c-.097.287-.122.838-.122 1.558v5.233c0 1.127.025 4.248.433 4.966.145.266.624.409 1.224.457l.744.073c.143.191.119.48-.048.599-1.08-.048-1.92-.072-2.808-.072-1.007 0-1.656.024-2.495.072-.169-.119-.193-.457-.049-.599l.649-.073c.551-.072.935-.216 1.055-.48.336-.863.312-3.791.312-4.943v-6.936c0-.673-.024-1.178-.528-1.728-.336-.336-.912-.505-1.488-.577l-.408-.047c-.144-.144-.144-.503.049-.601 1.008.072 2.279.072 2.711.072.384 0 .792-.023 1.104-.072.481 1.225 3.312 4.393 4.103 5.281l2.329 2.615c1.656 1.848 2.831 3.192 3.96 4.344h.048c.096-.119.096-.504.096-1.008v-5.136c0-1.128-.024-4.247-.48-4.968-.144-.216-.527-.36-1.487-.48l-.408-.047c-.169-.144-.145-.529.046-.601 1.105.049 1.92.072 2.833.072 1.033 0 1.656-.023 2.471-.072.193.121.193.457.049.601l-.336.047c-.768.12-1.248.313-1.345.504-.408.864-.36 3.84-.36 4.944z"/><path clip-path="url(#c)" d="m217.889 112.412c-2.017 0-3.288-.623-3.745-.887-.287-.529-.6-2.232-.649-3.359.122-.17.482-.217.577-.072.36 1.222 1.344 3.576 4.129 3.576 2.015 0 3-1.321 3-2.76 0-1.057-.217-2.232-1.969-3.361l-2.279-1.489c-1.201-.791-2.593-2.16-2.593-4.127 0-2.28 1.776-4.127 4.897-4.127.743 0 1.607.144 2.232.311.312.098.647.145.838.145.217.575.433 1.92.433 2.927-.097.145-.479.216-.6.073-.312-1.153-.959-2.713-3.263-2.713-2.353 0-2.857 1.56-2.857 2.666 0 1.39 1.153 2.398 2.039 2.951l1.921 1.199c1.512.936 3 2.328 3 4.608 0 2.64-1.992 4.439-5.111 4.439"/></g></svg>